PathFileType	4	(X/Y/Z)	./resultDataOpenSim/trcMotMarkerGrf/sub06/qtm-04-04.trc
DataRate	CameraRate	NumFrames	NumMarkers	Units	OrigDataRate	OrigDataStartFrame	OrigNumFrames
250.000000	250.000000	8	24	m	250.000000	135	536
Frame#	Time	L.Toe.Tip			R.Toe.Tip			L.Ankle.Lat			R.Ankle.Lat			L.Ankle.Med			R.Ankle.Med			L.Heel			R.Heel			L.Knee.Lat			R.Knee.Lat			L.Knee.Med			R.Knee.Med			L.Thigh.Upper			R.Thigh.Upper			L.ASIS			R.ASIS			V.Sacral			L.Acromium			R.Acromium			C7			L.Elbow			R.Elbow			L.Wrist.Lat			R.Wrist.Lat
		X1	Y1	Z1	X2	Y2	Z2	X3	Y3	Z3	X4	Y4	Z4	X5	Y5	Z5	X6	Y6	Z6	X7	Y7	Z7	X8	Y8	Z8	X9	Y9	Z9	X10	Y10	Z10	X11	Y11	Z11	X12	Y12	Z12	X13	Y13	Z13	X14	Y14	Z14	X15	Y15	Z15	X16	Y16	Z16	X17	Y17	Z17	X18	Y18	Z18	X19	Y19	Z19	X20	Y20	Z20	X21	Y21	Z21	X22	Y22	Z22	X23	Y23	Z23	X24	Y24	Z24

135	0.536	-0.03553689	0.12249965	-0.048041945	-0.74315671	0.035483403	0.1028646	-0.15800193	0.086563161	-0.063055345	-0.87247657	0.073725984	0.11935558	-0.16208567	0.10277647	0.020764853	-0.84459222	0.089345429	0.033231805	-0.19944623	0.021470081	-0.011967412	-0.92938667	0.05818401	0.054109558	-0.30966708	0.42047482	-0.066909472	-0.66317415	0.40649927	0.15902488	-0.32543855	0.40877712	0.057657461	-0.68373965	0.4104145	0.027058829	-0.48647815	0.7631385	-0.12195525	-0.56728247	0.75591005	0.22014591	-0.42691045	0.80962409	-0.063695553	-0.46035128	0.8076444	0.19224003	-0.62691341	0.87897978	0.043591867	-0.53516482	1.2844173	-0.13806305	-0.51312809	1.285589	0.22386631	-0.60002173	1.3232023	0.045937816	-0.65277466	0.99676017	-0.16988875	-0.50353895	0.97746944	0.34017633	-0.60047629	0.76711029	-0.23448418	-0.2611569	0.92041169	0.2941032
136	0.54	-0.028606262	0.1200881	-0.0464207	-0.74317717	0.035487149	0.10282112	-0.15086267	0.084142933	-0.062746423	-0.87212058	0.074131618	0.11946426	-0.15565916	0.099999416	0.021037727	-0.84413714	0.089487978	0.033277705	-0.19272805	0.018834477	-0.012393976	-0.92922394	0.058997592	0.054261232	-0.30195889	0.41842023	-0.066773065	-0.65909987	0.40468974	0.15897218	-0.31848059	0.40628109	0.057658597	-0.67914592	0.40857978	0.026926943	-0.47927782	0.76052226	-0.12231712	-0.5613903	0.75275829	0.21911472	-0.42000897	0.80639131	-0.063336954	-0.45488967	0.80489577	0.19280094	-0.61980904	0.87605343	0.042303883	-0.529368	1.2815958	-0.13860189	-0.50778464	1.2826706	0.22370132	-0.59404125	1.3204168	0.045416582	-0.64728157	0.99422086	-0.17013923	-0.49624811	0.97453197	0.34016472	-0.59666006	0.7644468	-0.23514051	-0.25396524	0.91919992	0.29342292
137	0.544	-0.022006014	0.11734058	-0.044877213	-0.74321009	0.03548433	0.10277107	-0.14408953	0.081550503	-0.062522946	-0.87172706	0.074600107	0.11958384	-0.14951145	0.097069149	0.021279229	-0.84366533	0.089708453	0.03333611	-0.18641036	0.016049314	-0.012813598	-0.92908461	0.059924578	0.054459448	-0.29424115	0.41642832	-0.066669089	-0.65496319	0.40283615	0.15891236	-0.31142398	0.40393029	0.057596087	-0.6745316	0.40669086	0.02679679	-0.47202647	0.75801181	-0.12265396	-0.5553349	0.74957476	0.21791262	-0.41309171	0.80323702	-0.063000707	-0.44944437	0.80222945	0.19343613	-0.61293729	0.87301771	0.04090325	-0.52351822	1.2788206	-0.13913199	-0.50230057	1.2798291	0.22346261	-0.58819712	1.3176519	0.044935636	-0.64165106	0.99168837	-0.17041231	-0.48893171	0.97162508	0.34007916	-0.592725	0.76182196	-0.23579215	-0.24682326	0.91791238	0.29272109
138	0.548	-0.015734578	0.11426742	-0.043444146	-0.74324163	0.035457457	0.10271619	-0.13769097	0.078768636	-0.062372215	-0.87129864	0.075130078	0.1197128	-0.14363566	0.093993573	0.021497477	-0.84317641	0.090007471	0.033406794	-0.18052001	0.013151924	-0.01313853	-0.92892862	0.060957309	0.05469444	-0.28652007	0.41450679	-0.066599957	-0.65076768	0.40095043	0.15885939	-0.30426634	0.4017397	0.057481383	-0.66990961	0.4047486	0.026675756	-0.46473152	0.75560434	-0.12294166	-0.54926667	0.74661186	0.21674617	-0.40615016	0.80016823	-0.06268925	-0.44398114	0.79962057	0.19409959	-0.60623042	0.87001691	0.039534414	-0.51761832	1.276075	-0.13965276	-0.49672093	1.2770749	0.22315895	-0.58248159	1.3149077	0.04449173	-0.63600295	0.98919987	-0.17064667	-0.48163221	0.96876643	0.33993857	-0.58870045	0.75922852	-0.23645407	-0.23973066	0.91655239	0.29200394
139	0.552	-0.0097942053	0.1108974	-0.042182528	-0.74326116	0.035408048	0.10266674	-0.13165407	0.075792395	-0.062246165	-0.87084041	0.07571545	0.11985043	-0.13801647	0.090791295	0.021700579	-0.84263027	0.09038007	0.033493392	-0.17504201	0.010164909	-0.013362872	-0.92871149	0.062086705	0.054961638	-0.27878998	0.4126575	-0.066569187	-0.64651224	0.39905234	0.15881725	-0.29699727	0.39971328	0.05733471	-0.66527904	0.4027414	0.026561551	-0.45740499	0.75328899	-0.12316674	-0.54326333	0.74396183	0.21576136	-0.3991688	0.79718941	-0.062407532	-0.43841884	0.7970268	0.19470792	-0.59964515	0.86719089	0.038346331	-0.51166733	1.2733471	-0.1401673	-0.4911025	1.274409	0.22279715	-0.57678195	1.3121499	0.044044918	-0.6303858	0.98677793	-0.1708188	-0.47438407	0.965973	0.33975192	-0.58459233	0.7566596	-0.23714342	-0.23268877	0.9151203	0.2912782
140	0.556	-0.0041879857	0.10726134	-0.041140395	-0.74326261	0.035357365	0.10263151	-0.12595584	0.072637421	-0.062100131	-0.87034725	0.076355477	0.11999636	-0.13264539	0.087481661	0.021889503	-0.84198286	0.090827586	0.03360579	-0.1699391	0.0070859767	-0.013527363	-0.92840605	0.063310704	0.055261245	-0.27104372	0.41087945	-0.066578648	-0.64219243	0.39715983	0.15878128	-0.28960595	0.39784915	0.057174765	-0.66066798	0.40066027	0.026441084	-0.4500429	0.75105735	-0.12333324	-0.53732408	0.74151403	0.21503171	-0.39215115	0.7943108	-0.062160862	-0.43266469	0.79440535	0.19517616	-0.59317162	0.86464571	0.037466349	-0.50566193	1.2706419	-0.14068218	-0.48545633	1.2718236	0.22237788	-0.57100758	1.3093501	0.043566125	-0.62475505	0.98441588	-0.1709589	-0.4672196	0.96326222	0.33952441	-0.58034701	0.7541222	-0.23785453	-0.22570199	0.9136155	0.29055177
141	0.56	0.0010837121	0.10338091	-0.040320352	-0.74324533	0.035322093	0.10261158	-0.12058434	0.069329472	-0.061925454	-0.86979795	0.077057197	0.12015044	-0.12752351	0.084072983	0.022060592	-0.84124498	0.091360605	0.033752279	-0.16518521	0.0039103933	-0.01365446	-0.9280353	0.064655769	0.055577939	-0.26328224	0.40916923	-0.066627994	-0.63779915	0.39528529	0.15875058	-0.28208739	0.3961432	0.057008748	-0.6561085	0.39851761	0.026310687	-0.4426267	0.74890657	-0.12345391	-0.53140216	0.7391026	0.21456099	-0.38513732	0.79154734	-0.06194746	-0.42666528	0.79173521	0.19546106	-0.58681249	0.86239286	0.036938281	-0.49960221	1.267974	-0.14120196	-0.47975511	1.2693025	0.22189916	-0.56513686	1.3065125	0.043046166	-0.61906486	0.98209652	-0.17110476	-0.46016633	0.96064614	0.33926089	-0.57586494	0.75163772	-0.23855001	-0.21877517	0.91203985	0.28983242
142	0.564	0.0060239679	0.099276006	-0.039697873	-0.74321362	0.035301461	0.10260352	-0.11554048	0.065890827	-0.061738765	-0.86916499	0.077828743	0.12031393	-0.1226444	0.080569034	0.022215971	-0.84050506	0.091991172	0.033929826	-0.16077582	0.0006483352	-0.01374246	-0.92768376	0.066187268	0.055870729	-0.25551176	0.40751909	-0.066715576	-0.63333058	0.39343393	0.15873186	-0.27444146	0.39458523	0.056835373	-0.6515188	0.39635619	0.026203012	-0.43516212	0.74683078	-0.12354121	-0.52542896	0.73664519	0.2142739	-0.37813581	0.7889108	-0.06175601	-0.42043325	0.78902129	0.19557797	-0.58054448	0.86028292	0.036648121	-0.49348644	1.265353	-0.14172663	-0.47396696	1.2668277	0.22135959	-0.55918958	1.3036738	0.042479944	-0.61329418	0.97980602	-0.17127533	-0.45323786	0.95812454	0.33896379	-0.57107208	0.74922442	-0.23918874	-0.21191292	0.91039758	0.28912669
